<?xml version="1.0" standalone="no"?>
<!DOCTYPE svg PUBLIC "-//W3C//DTD SVG 20010904//EN"
 "http://www.w3.org/TR/2001/REC-SVG-20010904/DTD/svg10.dtd">
<svg version="1.0" xmlns="http://www.w3.org/2000/svg"
 width="2554.000000pt" height="803.000000pt" viewBox="0 0 2554.000000 803.000000"
 preserveAspectRatio="xMidYMid meet">

<g transform="translate(0.000000,803.000000) scale(0.100000,-0.100000)"
fill="#000000" stroke="none">
<path d="M1026 8009 c-472 -69 -853 -412 -984 -886 l-27 -98 0 -3010 0 -3010
27 -98 c131 -473 505 -811 978 -883 146 -22 23357 -21 23503 1 506 76 916 486
992 992 13 85 15 491 15 2998 0 3184 3 2997 -60 3187 -143 426 -510 737 -947
803 -86 13 -1520 15 -11768 14 -6483 -1 -11696 -5 -11729 -10z m3814 -1153 c0
-356 -198 -723 -495 -922 -153 -101 -308 -154 -460 -157 l-80 -2 1 115 c1 147
33 271 108 426 127 259 328 449 597 566 103 44 222 76 287 77 l42 1 0 -104z
m80 -1146 c258 -32 501 -140 673 -300 79 -74 177 -184 177 -199 0 -5 -30 -31
-67 -59 -361 -269 -533 -676 -468 -1105 53 -354 267 -652 591 -824 100 -53 97
-35 29 -211 -130 -331 -414 -773 -632 -983 -158 -152 -291 -211 -473 -212
-129 0 -186 14 -395 98 -206 82 -285 99 -445 98 -163 -1 -247 -19 -445 -98
-238 -94 -260 -100 -405 -100 -147 1 -194 15 -316 97 -211 141 -504 525 -690
903 -133 272 -205 476 -268 756 -52 232 -61 317 -61 589 0 273 5 322 56 519
146 569 581 965 1121 1021 184 19 310 -7 623 -128 322 -124 321 -124 668 13
322 126 487 154 727 125z m11460 -264 c149 -31 293 -89 286 -115 -54 -175 -99
-317 -102 -320 -2 -2 -43 13 -93 32 -183 74 -437 99 -592 59 -176 -46 -279
-169 -279 -333 0 -187 124 -298 510 -459 373 -155 570 -337 637 -590 24 -89
23 -300 -1 -390 -76 -284 -302 -481 -636 -553 -131 -29 -460 -31 -595 -4 -133
27 -214 53 -305 98 -61 31 -80 45 -76 57 3 9 24 87 47 172 24 85 44 157 46
159 2 2 42 -14 90 -37 178 -83 321 -115 518 -116 143 0 218 15 306 59 149 76
229 233 201 394 -33 184 -154 289 -482 419 -69 27 -154 64 -190 82 -256 128
-422 307 -475 510 -22 82 -22 251 0 335 26 102 88 215 160 293 130 141 303
227 521 262 86 13 414 4 504 -14z m-6920 -1173 c205 -637 397 -1231 426 -1320
l52 -163 -227 0 -226 0 -73 233 c-41 127 -96 303 -124 390 l-50 157 -428 0
-429 0 -9 -32 c-5 -18 -58 -194 -117 -390 l-108 -358 -220 0 c-171 0 -218 3
-215 13 2 6 193 600 424 1319 l419 1308 265 0 266 0 374 -1157z m8250 662 l0
-235 230 0 230 0 0 -160 0 -160 -230 0 -231 0 3 -542 c3 -543 3 -543 26 -593
48 -104 113 -145 232 -144 41 0 95 4 120 9 25 4 46 7 47 6 2 -1 6 -75 9 -163
l7 -161 -79 -18 c-120 -28 -367 -26 -448 4 -168 62 -262 173 -312 367 -16 62
-18 133 -21 653 l-4 582 -140 0 -139 0 0 160 0 160 140 0 140 0 0 173 0 173
203 62 c111 33 205 61 210 61 4 1 7 -105 7 -234z m-6181 -226 c122 -31 203
-81 316 -194 198 -198 275 -409 275 -749 0 -350 -86 -592 -280 -786 -164 -163
-328 -229 -568 -230 -215 0 -341 46 -464 171 l-78 78 0 -489 0 -490 -215 0
-215 0 0 1188 c0 654 -3 1257 -7 1340 l-6 152 185 0 185 0 6 -57 c4 -32 9
-100 13 -150 4 -51 9 -93 13 -92 3 0 26 27 50 60 164 225 484 326 790 248z
m2189 0 c209 -53 416 -245 511 -473 108 -261 116 -626 18 -911 -83 -241 -259
-433 -477 -522 -93 -37 -183 -53 -311 -53 -230 0 -403 76 -511 224 l-28 39 0
-496 0 -497 -215 0 -215 0 0 1218 c0 671 -3 1274 -7 1340 l-6 122 185 0 186 0
6 -42 c3 -24 8 -91 12 -150 4 -60 9 -108 13 -107 3 0 29 31 58 68 113 148 297
244 508 265 68 6 196 -5 273 -25z m7913 21 c18 0 19 -12 19 -202 l0 -203 -128
0 c-121 0 -130 -1 -192 -31 -84 -40 -150 -107 -195 -197 -63 -128 -65 -150
-65 -759 l0 -548 -215 0 -215 0 0 858 c0 471 -3 901 -7 955 l-6 97 185 0 185
0 6 -97 c4 -54 7 -130 7 -170 0 -111 7 -114 51 -26 52 106 117 183 197 236
106 70 212 101 311 91 24 -2 52 -4 62 -4z m1344 -14 c282 -77 478 -305 551
-642 18 -84 25 -356 11 -406 l-7 -28 -635 0 -635 0 0 -24 c0 -59 33 -187 64
-252 66 -132 206 -234 371 -269 145 -31 390 -13 583 41 51 15 94 25 96 23 2
-2 17 -67 34 -143 25 -108 29 -142 19 -148 -25 -16 -195 -67 -277 -82 -195
-38 -467 -38 -624 -2 -370 86 -616 371 -665 771 -64 526 182 999 594 1140 137
47 387 57 520 21z m-3415 -2 c176 -33 311 -104 435 -228 126 -126 198 -253
246 -432 30 -112 38 -392 15 -519 -40 -218 -117 -374 -255 -518 -113 -118
-221 -183 -387 -233 -120 -36 -351 -45 -489 -19 -312 58 -554 274 -662 590
-71 208 -72 529 -1 745 82 253 272 467 497 559 59 25 163 54 231 64 69 11 294
6 370 -9z"/>
<path d="M8746 4853 c-31 -125 -108 -391 -171 -589 -63 -199 -115 -364 -115
-368 0 -3 158 -6 350 -6 246 0 350 3 350 11 0 6 -54 176 -120 379 -66 202
-144 463 -174 580 -30 117 -57 214 -59 217 -2 2 -30 -99 -61 -224z"/>
<path d="M11110 4386 c-124 -26 -254 -123 -313 -233 -55 -102 -67 -182 -67
-432 0 -248 7 -296 59 -399 94 -185 290 -276 503 -231 138 29 250 122 316 261
57 119 73 191 79 358 4 121 2 161 -15 243 -51 246 -200 408 -402 437 -79 12
-91 11 -160 -4z"/>
<path d="M13310 4390 c-125 -26 -258 -126 -319 -239 -58 -110 -71 -187 -71
-430 0 -243 10 -306 63 -404 101 -190 293 -272 517 -221 131 30 230 114 301
259 64 131 74 184 74 390 0 158 -3 190 -23 260 -54 188 -161 315 -307 365 -67
23 -175 32 -235 20z"/>
<path d="M22585 4423 c-111 -40 -199 -127 -262 -258 -32 -69 -67 -200 -57
-217 3 -4 201 -8 440 -8 l434 0 0 53 c-1 176 -102 352 -238 415 -76 35 -239
43 -317 15z"/>
<path d="M19205 4406 c-110 -36 -188 -102 -254 -214 -121 -204 -146 -513 -62
-760 72 -209 203 -334 382 -363 257 -41 475 152 544 483 20 91 19 306 0 398
-44 211 -152 372 -295 439 -47 22 -71 26 -165 28 -71 2 -124 -2 -150 -11z"/>
</g>
</svg>
